<?xml version="1.0" encoding="UTF-8"?><svg id="Layer_1" xmlns="http://www.w3.org/2000/svg" viewBox="0 0 733.96 157.32"><defs><style>.cls-1{fill:#fff;}.cls-2{fill:#ed1c24;}</style></defs><polygon class="cls-2" points="67.78 0 0 157.32 105.74 157.32 173.32 0 67.78 0"/><path class="cls-1" d="M130.18,70.5c3.38-7.42,8.29-18.22,9.18-22.78,4.13-21.09-14.1-24.46-31.77-24.46-28.34,0-39.29,8.6-49.82,32.9l-21.74,50.28c-2.25,5.23-4.94,10.97-6.07,16.71-2.87,14.68,8.49,23.62,32.63,23.62,39.88,0,42.18-15.35,56.86-47.41h-30.61c-9.16,21.77-11.51,26.66-21.14,26.66-4.72,0-7.79-2.19-6.93-6.58,.36-1.86,1.38-4.39,2.27-6.24l26.65-61.08c2.18-4.89,6.28-7.09,11.36-7.09,5.42,0,8.91,1.85,7.82,7.42-.53,2.7-4.86,12.32-7.38,18.05h28.69Z"/><path d="M706.32,56.33l-1.48,7.03c-1.64,8.01-4.44,10.29-12.34,10.29h-8.89l6.26-26.8h8.89c3.13,0,8.06,.16,8.06,5.07,0,1.63-.33,3.27-.5,4.41m-.66-29.25h-39.5l-26.82,115.36h28.3l11.19-48.53h8.06c3.79,0,8.39,.49,8.39,6.21,0,1.96-.66,4.74-1.15,7.03l-4.44,20.75c-.82,3.59-.99,5.06-.99,6.86,0,7.35,6.75,7.35,8.39,7.35l24.19,.82v-.98c-2.3-.82-4.94-2.29-4.94-6.86,.49-1.14,1.15-7.35,2.14-12.58l3.62-17.48c.17-.98,1.15-5.07,1.15-8.33,0-7.52-5.93-11.93-15.47-13.4,4.77-.65,15.47-1.96,20.74-13.4,2.8-6.05,5.43-18.46,5.43-24.18,0-17.49-16.46-18.63-28.3-18.63"/><polygon points="654.68 27.33 596.26 27.33 569.43 142.69 630.82 142.69 635.43 122.43 602.51 122.43 609.42 93.02 638.06 93.02 642.5 73.57 613.87 73.57 619.96 47.1 650.07 47.1 654.68 27.33"/><polygon points="589.06 27.33 557.62 27.33 533.93 74.39 529.98 27.33 502.49 27.33 513.35 102.82 504.14 142.69 531.95 142.69 540.67 105.11 589.06 27.33"/><path d="M493.2,27.33h-27.81l-19.25,82.35c-1.48,6.54-3.29,13.23-11.52,13.23-4.44,0-8.56-1.8-8.56-6.86,0-2.13,.33-4.25,.82-6.37l19.25-82.35h-28.14l-15.96,67.48c-1.81,7.68-4.11,17.49-4.11,24.18,0,14.38,9.38,25.65,34.56,25.65,15.96,0,29.79-4.09,36.86-19.44,2.3-4.9,3.62-10.29,4.77-15.52l19.09-82.35Z"/><path d="M373.22,56.74l-1.81,7.68c-1.81,7.68-5.92,8.82-12.51,8.82h-10.04l5.92-25.16h9.38c4.61,0,9.38,0,9.38,5.72,0,.98-.16,1.96-.33,2.94m-10.37,45.26l-2.3,9.81c-1.48,6.37-2.63,10.62-10.86,10.62h-12.18l6.75-29.58h11.03c4.44,0,8.06,1.31,8.06,5.56,0,1.31-.16,2.61-.5,3.59m6.26-74.67h-37.85l-26.66,115.36h49.37c11.19,0,22.87-1.47,28.14-12.74,2.96-6.37,8.23-27.45,8.23-34.32,0-8.99-6.58-12.74-14.48-14.7,7.41-1.15,14.32-2.78,18.43-9.48,2.96-4.74,5.92-19.61,5.92-25.33,0-17.81-17.44-18.79-31.1-18.79"/><path d="M282.17,56.33l-1.48,7.03c-1.65,8.01-4.44,10.29-12.34,10.29h-8.89l6.25-26.8h8.89c3.13,0,8.06,.16,8.06,5.07,0,1.63-.33,3.27-.49,4.41m-.66-29.25h-39.5l-26.82,115.36h28.31l11.19-48.53h8.06c3.79,0,8.39,.49,8.39,6.21,0,1.96-.66,4.74-1.15,7.03l-4.44,20.75c-.82,3.59-.99,5.06-.99,6.86,0,7.35,6.75,7.35,8.39,7.35l24.19,.82v-.98c-2.3-.82-4.94-2.29-4.94-6.86,.49-1.14,1.15-7.35,2.14-12.58l3.62-17.48c.16-.98,1.15-5.07,1.15-8.33,0-7.52-5.93-11.93-15.47-13.4,4.77-.65,15.47-1.96,20.73-13.4,2.8-6.05,5.43-18.46,5.43-24.18,0-17.49-16.46-18.63-28.31-18.63"/><path d="M183.43,97.26h-15.96l21.23-59.31-5.26,59.31Zm-13.5-69.93l-49.86,115.36h30.12l9.87-25.65h21.56l-2.47,25.65h27.65l8.39-115.36h-45.26Z"/></svg>